<?xml version="1.0" encoding="UTF-8"?>
<svg id="a" data-name="Слой 1" xmlns="http://www.w3.org/2000/svg" viewBox="0 0 16 16">
  <defs>
    <style>
      .b {
        fill: #161515;
      }

      .c {
        fill: none;
      }

      .c, .d {
        fill-rule: evenodd;
      }

      .d {
        fill: #db0001;
      }
    </style>
  </defs>
  <path class="d" d="M14.42,8.79c-.24-.54-.6-1.02-1.05-1.41l-.42,.46c.43,.45,.77,.98,.98,1.57-.02,.05-.53,.41-.82,.55-.4,.19-.94,.49-1.43,.49-.26-.72-.72-1.36-1.32-1.85l.36-.11c.85-.25,1.54-.74,2.01-1.48,.2-.3,.45-.99,.54-1.66,.13-.81,.07-1.6,.07-1.6-.04-.04-.85-.25-.85-.25-.58-.11-1.09-.19-1.79-.07l.13,.6c.49-.04,.78,0,1.12,.04,.4,.05,.74,.16,.76,.18,.04,.05,0,.65-.05,.95-.09,.44-.2,1.04-.49,1.41-.74-.25-1.53-.31-2.3-.16l.13-.32c.34-.78,.37-1.65,.07-2.45-.24-.53-.57-1.02-.98-1.44-.58-.6-1.23-1.06-1.25-1.06-.05,0-.72,.49-.72,.49-.48,.35-.88,.8-1.18,1.3l.56,.28c.29-.39,.49-.6,.72-.83,.29-.26,.6-.48,.62-.48,.05,0,.53,.41,.72,.63,.29,.33,.72,.79,.83,1.27-.65,.4-1.18,.95-1.56,1.6l-.14-.26c-.4-.75-1.08-1.32-1.9-1.6-.58-.16-1.18-.22-1.78-.18-.83,.05-1.63,.26-1.63,.26-.04,.04-.07,.86-.07,.86,.02,.58,.04,1.07,.29,1.71,.19-.09,.38-.16,.58-.23-.18-.59-.23-1.22-.16-1.83,.32-.09,.65-.13,.98-.14,.43,0,1.03-.04,1.45,.16-.11,.63,0,1.5,.34,2.27-.56-.14-1.09-.14-1.59-.02-.43,.09-.85,.25-1.23,.49-.48,.35-.89,.78-1.21,1.27-.45,.69-.76,1.43-.76,1.43,0,.05,.67,.56,.67,.56,.49,.33,.91,.62,1.59,.79l.14-.6c-.59-.23-1.14-.56-1.61-.97,.11-.3,.27-.59,.47-.85,.27-.37,.63-.88,1.07-1.07,.54,.52,1.22,.89,1.96,1.06l-.2,.18c-.65,.58-1.09,1.3-1.18,2.17-.04,.35,.02,1.07,.22,1.73,.24,.78,.62,1.48,.63,1.48,.04,.02,.87-.12,.87-.12,.59-.11,1.15-.33,1.65-.65l-.36-.49c-.56,.31-1.17,.5-1.81,.58-.16-.28-.28-.57-.36-.88-.09-.39-.25-.92-.18-1.36,.65-.04,1.5-.33,2.19-.85,.04,.97,.25,1.74,.98,2.47,.25,.26,.87,.67,1.5,.93,.78,.32,1.58,.48,1.58,.46,.16-.24,.31-.49,.45-.74,.25-.53,.45-.97,.53-1.66l-.63-.04c-.09,.48-.2,.74-.31,1.04-.14,.35-.34,.67-.36,.67-.05,.02-.65-.16-.94-.3-.4-.18-.96-.42-1.25-.78,.36-.53,.65-1.3,.71-2.11,.78,.62,1.7,.93,2.72,.81,.36-.04,1.07-.26,1.67-.6,.72-.41,1.34-.93,1.34-.93-.08-.27-.18-.54-.31-.79Zm-7.9-1.2l.2,.21c-.13,.05-.33,.11-.47,.12-.76,.07-1.45-.18-2.07-.69,.39-.12,.81-.15,1.21-.08,.4,.06,.79,.21,1.13,.44Zm4.29,2.59l.05,.18h-.09c-.33-.07-.63-.18-.91-.33-.49-.32-.91-.83-1.01-1.29,.51,.02,1.14,.35,1.58,.85,.14,.18,.27,.37,.38,.6Zm-3.82-1.43c-.18,.67-1.12,1.51-2.03,1.55,.18-.79,1.29-1.57,2.03-1.55Zm4.62-1.55s-.02,.02,0,0c-.27,.25-.59,.44-.94,.56-.35,.12-.72,.18-1.09,.16-.2-.01-.39-.07-.56-.16,.07-.11,.18-.19,.31-.28,.69-.42,1.45-.49,2.28-.28Zm-3.08-.26l-.18,.09-.04-.16c-.02-.93,.43-1.64,1.2-2.18,.04,.93-.25,1.69-.98,2.25Zm-1.18,.09c-.65-.32-1.3-1.43-1.11-2.31l.16,.09c.27,.23,.49,.46,.65,.74,.27,.48,.4,1.07,.29,1.48Zm.51,4.67c-.2-.36-.32-.75-.34-1.16-.02-.41,.06-.81,.23-1.18l.18-.25,.09,.09c.14,.21,.22,.45,.25,.7,.04,.49-.09,1.41-.42,1.8Z"/>
  <path class="b" d="M5.4,7.76s-.06,.02-.08,.06c-.02,.05-.03,.11-.03,.17,0,.15,.04,.22,.12,.22,.02,0,.05,0,.07-.01,.02,0,.04-.02,.07-.03v.17s-.1,.04-.15,.04c-.08,0-.15-.03-.19-.1-.04-.07-.07-.16-.07-.29,0-.08,0-.15,.03-.21,.02-.06,.05-.11,.09-.14,.04-.03,.09-.05,.14-.05,.06,0,.12,.02,.17,.05l-.04,.16s-.08-.04-.12-.04Zm.59,.6l-.03-.14h-.18l-.03,.14h-.16l.18-.76h.2l.18,.76h-.16Zm-.06-.31l-.02-.12c-.01-.07-.02-.14-.03-.2v.09s-.06,.24-.06,.24h.11Zm.63,.08s0,.09-.03,.13c-.02,.04-.04,.07-.07,.08-.03,.02-.07,.03-.11,.03-.04,0-.07,0-.09-.01-.03,0-.05-.02-.08-.04v-.18s.06,.04,.09,.05c.03,.01,.06,.02,.08,.02,.02,0,.04,0,.05-.02,0-.01,.01-.02,.01-.04,0-.01,0-.02,0-.03,0,0,0-.02-.02-.02,0,0-.03-.03-.07-.05-.03-.02-.06-.04-.08-.06-.02-.02-.03-.05-.04-.07,0-.03-.01-.06-.01-.1,0-.07,.02-.12,.05-.16,.04-.04,.09-.06,.15-.06,.06,0,.11,.02,.17,.06l-.04,.16s-.09-.05-.13-.05c-.02,0-.03,0-.04,.01,0,0-.01,.02-.01,.03s0,.03,.02,.04c.01,.01,.04,.03,.09,.06,.05,.03,.08,.06,.1,.09,.02,.04,.03,.08,.03,.13Zm.08,.23v-.76h.15v.76h-.15Zm.79,0h-.19l-.2-.54h0c0,.09,0,.15,0,.19v.34h-.13v-.76h.19l.2,.53h0v-.18s0-.34,0-.34h.13v.76h0Zm.63-.38c0,.13-.02,.23-.07,.29-.04,.07-.11,.1-.2,.1s-.15-.03-.2-.1c-.05-.07-.07-.16-.07-.29s.02-.22,.07-.29c.04-.07,.11-.1,.2-.1s.15,.03,.2,.1c.04,.07,.07,.17,.07,.3Zm-.38,0c0,.15,.04,.22,.11,.22,.04,0,.06-.02,.08-.05s.03-.09,.03-.17,0-.13-.03-.17c0-.02-.02-.03-.04-.04-.01,0-.03-.01-.05-.01-.07,0-.11,.07-.11,.22Zm.72-.22s-.06,.02-.08,.06c-.02,.05-.03,.11-.03,.17,0,.15,.04,.22,.12,.22,.02,0,.05,0,.07-.01,.02,0,.04-.02,.07-.03v.17s-.1,.04-.15,.04c-.08,0-.15-.03-.19-.1-.04-.07-.07-.16-.07-.29,0-.08,0-.15,.03-.21,.02-.06,.05-.11,.09-.14,.04-.03,.09-.05,.14-.05,.06,0,.12,.02,.17,.05l-.04,.16s-.08-.04-.12-.04Zm.72,.6h-.15v-.31h-.17v.31h-.15v-.76h.15v.28h.17v-.28h.15v.76Zm.45,0l-.03-.14h-.18l-.03,.14h-.16l.18-.76h.2l.18,.76h-.16Zm-.06-.31l-.02-.12c-.01-.07-.02-.14-.03-.2v.09s-.06,.24-.06,.24h.11Zm.8,.31h-.19l-.2-.54h0c0,.09,0,.15,0,.19v.34h-.13v-.76h.19l.2,.53h0v-.18s0-.34,0-.34h.13v.76h0Z"/>
  <path class="c" d="M0,0V16H15.97c.01-5.33,.02-10.67,.03-16H0Z"/>
</svg>